<svg xmlns="http://www.w3.org/2000/svg" width="920" height="520" viewBox="0 0 920 520" font-family="Segoe UI, Helvetica, Arial, sans-serif">
<rect width="920" height="520" fill="#ffffff"/>
<text x="62" y="30" font-size="19" font-weight="600" fill="#1f2328">Burn down — CI-CD Kube</text>
<text x="62" y="50" font-size="12.5" fill="#656d76">20.1 h faites sur 22.4 h · 2.2 h restantes · 5 jours avant la soutenance · 0.6 h abandonnées</text>
<line x1="62" y1="442.0" x2="896" y2="442.0" stroke="#d8dee4" stroke-width="1"/>
<text x="52" y="446.0" font-size="11.5" fill="#656d76" text-anchor="end">0 h</text>
<line x1="62" y1="357.5" x2="896" y2="357.5" stroke="#d8dee4" stroke-width="1"/>
<text x="52" y="361.5" font-size="11.5" fill="#656d76" text-anchor="end">5 h</text>
<line x1="62" y1="273.1" x2="896" y2="273.1" stroke="#d8dee4" stroke-width="1"/>
<text x="52" y="277.1" font-size="11.5" fill="#656d76" text-anchor="end">10 h</text>
<line x1="62" y1="188.6" x2="896" y2="188.6" stroke="#d8dee4" stroke-width="1"/>
<text x="52" y="192.6" font-size="11.5" fill="#656d76" text-anchor="end">15 h</text>
<line x1="62" y1="104.1" x2="896" y2="104.1" stroke="#d8dee4" stroke-width="1"/>
<text x="52" y="108.1" font-size="11.5" fill="#656d76" text-anchor="end">20 h</text>
<line x1="62" y1="64.0" x2="896" y2="64.0" stroke="#d8dee4" stroke-width="1"/>
<text x="52" y="68.0" font-size="11.5" fill="#656d76" text-anchor="end">22.4 h</text>
<line x1="62.0" y1="64" x2="62.0" y2="442" stroke="#d8dee4" stroke-width="1"/>
<text x="62.0" y="460" font-size="10.5" fill="#656d76" text-anchor="middle">01/09</text>
<line x1="121.6" y1="64" x2="121.6" y2="442" stroke="#d8dee4" stroke-width="1"/>
<text x="121.6" y="460" font-size="10.5" fill="#656d76" text-anchor="middle">02/09</text>
<line x1="181.1" y1="64" x2="181.1" y2="442" stroke="#d8dee4" stroke-width="1"/>
<text x="181.1" y="460" font-size="10.5" fill="#656d76" text-anchor="middle">03/09</text>
<line x1="240.7" y1="64" x2="240.7" y2="442" stroke="#d8dee4" stroke-width="1"/>
<text x="240.7" y="460" font-size="10.5" fill="#656d76" text-anchor="middle">04/09</text>
<rect x="294.3" y="64" width="12" height="378" fill="#f6f8fa"/>
<line x1="300.3" y1="64" x2="300.3" y2="442" stroke="#d8dee4" stroke-width="1"/>
<text x="300.3" y="460" font-size="10.5" fill="#656d76" text-anchor="middle">05/09</text>
<rect x="353.9" y="64" width="12" height="378" fill="#f6f8fa"/>
<line x1="359.9" y1="64" x2="359.9" y2="442" stroke="#d8dee4" stroke-width="1"/>
<text x="359.9" y="460" font-size="10.5" fill="#656d76" text-anchor="middle">06/09</text>
<line x1="419.4" y1="64" x2="419.4" y2="442" stroke="#d8dee4" stroke-width="1"/>
<text x="419.4" y="460" font-size="10.5" fill="#656d76" text-anchor="middle">07/09</text>
<line x1="479.0" y1="64" x2="479.0" y2="442" stroke="#d8dee4" stroke-width="1"/>
<text x="479.0" y="460" font-size="10.5" fill="#656d76" text-anchor="middle">08/09</text>
<line x1="538.6" y1="64" x2="538.6" y2="442" stroke="#d8dee4" stroke-width="1"/>
<text x="538.6" y="460" font-size="10.5" fill="#656d76" text-anchor="middle">09/09</text>
<line x1="598.1" y1="64" x2="598.1" y2="442" stroke="#d8dee4" stroke-width="1"/>
<text x="598.1" y="460" font-size="10.5" fill="#656d76" text-anchor="middle">10/09</text>
<line x1="657.7" y1="64" x2="657.7" y2="442" stroke="#d8dee4" stroke-width="1"/>
<text x="657.7" y="460" font-size="10.5" fill="#656d76" text-anchor="middle">11/09</text>
<rect x="711.3" y="64" width="12" height="378" fill="#f6f8fa"/>
<line x1="717.3" y1="64" x2="717.3" y2="442" stroke="#d8dee4" stroke-width="1"/>
<text x="717.3" y="460" font-size="10.5" fill="#656d76" text-anchor="middle">12/09</text>
<rect x="770.9" y="64" width="12" height="378" fill="#f6f8fa"/>
<line x1="776.9" y1="64" x2="776.9" y2="442" stroke="#d8dee4" stroke-width="1"/>
<text x="776.9" y="460" font-size="10.5" fill="#656d76" text-anchor="middle">13/09</text>
<line x1="836.4" y1="64" x2="836.4" y2="442" stroke="#d8dee4" stroke-width="1"/>
<text x="836.4" y="460" font-size="10.5" fill="#656d76" text-anchor="middle">14/09</text>
<line x1="896.0" y1="64" x2="896.0" y2="442" stroke="#d8dee4" stroke-width="1"/>
<text x="896.0" y="460" font-size="10.5" fill="#656d76" text-anchor="middle">15/09</text>
<line x1="62.0" y1="64.0" x2="896.0" y2="442.0" stroke="#8c959f" stroke-width="2" stroke-dasharray="6 5"/>
<polyline points="62.0,64.0 121.6,64.0 121.6,209.0 181.1,209.0 181.1,298.4 240.7,298.4 240.7,321.6 300.3,321.6 300.3,353.3 359.9,353.3 359.9,353.3 419.4,353.3 419.4,353.3 479.0,353.3 479.0,404.0 538.6,404.0 538.6,404.0 598.1,404.0 598.1,404.0 598.1,404.0 598.1,404.0" fill="none" stroke="#1a7f37" stroke-width="2.5" stroke-linejoin="round"/>
<circle cx="598.1" cy="404.0" r="4.5" fill="#1a7f37"/>
<line x1="62" y1="494" x2="88" y2="494" stroke="#8c959f" stroke-width="2" stroke-dasharray="6 5"/>
<text x="96" y="498" font-size="12" fill="#656d76">idéal (rythme constant jusqu'au 15/09)</text>
<line x1="342" y1="494" x2="368" y2="494" stroke="#1a7f37" stroke-width="2.5"/>
<text x="376" y="498" font-size="12" fill="#656d76">réel (issues fermées, pondérées en heures)</text>
</svg>